<svg width="16" height="16" viewBox="0 0 16 16" fill="none" xmlns="http://www.w3.org/2000/svg">
<g clip-path="url(#clip0_28_109)">
<path d="M14.9596 5.19852C14.6332 4.4134 13.9721 3.56577 13.453 3.29786C13.8755 4.12615 14.12 4.95702 14.2134 5.57712C14.2134 5.57833 14.2139 5.58136 14.2149 5.58961C13.3657 3.47296 11.9257 2.61946 10.7499 0.761083C10.6905 0.667115 10.631 0.572896 10.573 0.473584C10.5434 0.422864 10.5159 0.371035 10.4903 0.318209C10.4414 0.223891 10.4038 0.124197 10.378 0.021146C10.3782 0.0162674 10.3765 0.0114978 10.3734 0.00777405C10.3702 0.00405032 10.3658 0.00164159 10.3609 0.00102102C10.3563 -0.000299651 10.3515 -0.000299651 10.3468 0.00102102C10.3458 0.00139602 10.3442 0.00261477 10.3431 0.00305227C10.3414 0.00370852 10.3393 0.00520852 10.3376 0.00617727C10.3384 0.00505227 10.3402 0.00252102 10.3407 0.00192727C8.45416 1.1068 7.81416 3.15071 7.75535 4.1733C7.00199 4.22509 6.28171 4.50265 5.68841 4.9698C5.62629 4.91733 5.56135 4.8683 5.49388 4.82293C5.3227 4.22405 5.31543 3.5902 5.47282 2.98755C4.70132 3.33883 4.10126 3.89412 3.66501 4.38443H3.66154C3.36382 4.00733 3.38482 2.7634 3.40179 2.50368C3.39822 2.48758 3.17969 2.61711 3.15107 2.63665C2.88835 2.82417 2.64275 3.03457 2.41713 3.2654C2.16039 3.52576 1.92581 3.80708 1.71582 4.10643C1.71582 4.1068 1.7156 4.10724 1.71547 4.10761C1.71547 4.10721 1.71569 4.1068 1.71582 4.10643C1.23289 4.79078 0.890387 5.56407 0.7081 6.38158C0.704506 6.39786 0.701475 6.41474 0.697975 6.43115C0.68385 6.49727 0.632975 6.82802 0.624068 6.8999C0.623381 6.90543 0.623068 6.91074 0.622412 6.91627C0.556638 7.25823 0.515905 7.60454 0.500537 7.95243C0.500537 7.96524 0.499756 7.97793 0.499756 7.99077C0.499881 12.1381 3.86238 15.5 8.01001 15.5C11.7245 15.5 14.8088 12.8035 15.4126 9.26155C15.4253 9.16543 15.4355 9.0688 15.4467 8.97183C15.596 7.68402 15.4301 6.33043 14.9596 5.19852ZM6.30351 11.0765C6.33863 11.0932 6.37163 11.1116 6.40769 11.1277C6.40919 11.1287 6.41126 11.1299 6.41279 11.1308C6.37608 11.1133 6.33965 11.0951 6.30351 11.0765ZM14.2155 5.59146L14.2145 5.58418C14.2149 5.58683 14.2153 5.58962 14.2158 5.59227L14.2155 5.59146Z" fill="url(#paint0_linear_28_109)"/>
<path d="M14.9598 5.19854C14.6334 4.41341 13.9723 3.56579 13.4532 3.29788C13.8757 4.12616 14.1202 4.95704 14.2136 5.57713C14.2136 5.57532 14.214 5.57863 14.2148 5.58419C14.2151 5.58685 14.2156 5.58963 14.216 5.59229C14.9246 7.51323 14.5386 9.4666 13.9823 10.6603C13.1217 12.5071 11.0381 14.3999 7.77678 14.3076C4.25319 14.2079 1.149 11.5934 0.569531 8.16907C0.463937 7.62907 0.569531 7.35488 0.622656 6.91644C0.557938 7.25444 0.533281 7.35207 0.500781 7.9526C0.500781 7.96541 0.5 7.9781 0.5 7.99094C0.500063 12.1381 3.86256 15.5 8.01019 15.5C11.7247 15.5 14.8089 12.8035 15.4128 9.26157C15.4255 9.16544 15.4357 9.06882 15.4469 8.97185C15.5962 7.68404 15.4303 6.33044 14.9598 5.19854Z" fill="url(#paint1_radial_28_109)"/>
<path d="M14.9598 5.19854C14.6334 4.41341 13.9723 3.56579 13.4532 3.29788C13.8757 4.12616 14.1202 4.95704 14.2136 5.57713C14.2136 5.57532 14.214 5.57863 14.2148 5.58419C14.2151 5.58685 14.2156 5.58963 14.216 5.59229C14.9246 7.51323 14.5386 9.4666 13.9823 10.6603C13.1217 12.5071 11.0381 14.3999 7.77678 14.3076C4.25319 14.2079 1.149 11.5934 0.569531 8.16907C0.463937 7.62907 0.569531 7.35488 0.622656 6.91644C0.557938 7.25444 0.533281 7.35207 0.500781 7.9526C0.500781 7.96541 0.5 7.9781 0.5 7.99094C0.500063 12.1381 3.86256 15.5 8.01019 15.5C11.7247 15.5 14.8089 12.8035 15.4128 9.26157C15.4255 9.16544 15.4357 9.06882 15.4469 8.97185C15.5962 7.68404 15.4303 6.33044 14.9598 5.19854Z" fill="url(#paint2_radial_28_109)"/>
<path d="M11.3101 6.08124C11.3265 6.09274 11.3413 6.10418 11.3567 6.11561C11.1683 5.7811 10.9336 5.47484 10.6596 5.20586C8.32502 2.87161 10.0474 0.144551 10.3379 0.00605054C10.3387 0.00492554 10.3405 0.00239429 10.341 0.00180054C8.45443 1.10668 7.81443 3.15058 7.75562 4.17318C7.84312 4.16711 7.93037 4.15977 8.01943 4.15977C9.42727 4.15977 10.6535 4.93383 11.3101 6.08124Z" fill="url(#paint3_radial_28_109)"/>
<path d="M8.02405 6.54732C8.01177 6.73413 7.35173 7.37835 7.12092 7.37835C4.98533 7.37835 4.63867 8.67007 4.63867 8.67007C4.73327 9.75788 5.49058 10.6537 6.40777 11.1277C6.44961 11.1493 6.49195 11.1688 6.53433 11.1881C6.60698 11.2203 6.68054 11.2504 6.75492 11.2783C7.0694 11.3897 7.39881 11.4532 7.73214 11.4668C11.4753 11.6424 12.2005 6.99198 9.49917 5.64154C10.191 5.52123 10.909 5.79945 11.31 6.08113C10.6534 4.93382 9.4272 4.15976 8.01939 4.15976C7.93033 4.15976 7.84311 4.1671 7.75558 4.17317C7.00222 4.22496 6.28194 4.50252 5.68864 4.96967C5.80314 5.06654 5.93239 5.19604 6.2047 5.46429C6.71414 5.96638 8.02127 6.48632 8.02405 6.54732Z" fill="url(#paint4_radial_28_109)"/>
<path d="M8.02405 6.54732C8.01177 6.73413 7.35173 7.37835 7.12092 7.37835C4.98533 7.37835 4.63867 8.67007 4.63867 8.67007C4.73327 9.75788 5.49058 10.6537 6.40777 11.1277C6.44961 11.1493 6.49195 11.1688 6.53433 11.1881C6.60698 11.2203 6.68054 11.2504 6.75492 11.2783C7.0694 11.3897 7.39881 11.4532 7.73214 11.4668C11.4753 11.6424 12.2005 6.99198 9.49917 5.64154C10.191 5.52123 10.909 5.79945 11.31 6.08113C10.6534 4.93382 9.4272 4.15976 8.01939 4.15976C7.93033 4.15976 7.84311 4.1671 7.75558 4.17317C7.00222 4.22496 6.28194 4.50252 5.68864 4.96967C5.80314 5.06654 5.93239 5.19604 6.2047 5.46429C6.71414 5.96638 8.02127 6.48632 8.02405 6.54732Z" fill="url(#paint5_radial_28_109)"/>
<path d="M5.3385 4.71986C5.39081 4.7536 5.4427 4.78798 5.49416 4.82298C5.32298 4.22411 5.31571 3.59026 5.4731 2.98761C4.7016 3.33889 4.10153 3.89417 3.66528 4.38449C3.70138 4.38345 4.79072 4.36386 5.3385 4.71986Z" fill="url(#paint6_radial_28_109)"/>
<path d="M0.569399 8.16905C1.14887 11.5934 4.25305 14.2078 7.77665 14.3076C11.0379 14.3999 13.1216 12.507 13.9821 10.6602C14.5384 9.46649 14.9245 7.51336 14.2159 5.59227L14.2156 5.59145L14.2146 5.58417C14.2138 5.57861 14.2134 5.5753 14.2135 5.57711C14.2135 5.57833 14.214 5.58136 14.215 5.58961C14.4813 7.32902 13.5965 9.01411 12.2134 10.1535L12.2092 10.1633C9.51406 12.3577 6.93502 11.4873 6.41284 11.131C6.37613 11.1133 6.33967 11.0951 6.30346 11.0765C4.73215 10.3256 4.08302 8.89405 4.22221 7.66636C2.89543 7.66636 2.44302 6.54733 2.44302 6.54733C2.44302 6.54733 3.63424 5.69799 5.20421 6.43667C6.65827 7.12083 8.02384 6.54739 8.02399 6.54733C8.02121 6.48633 6.71409 5.96639 6.20452 5.46433C5.93224 5.19608 5.80296 5.06674 5.68846 4.96971C5.62634 4.91724 5.5614 4.8682 5.49393 4.82283C5.44241 4.78791 5.39052 4.75353 5.33827 4.71971C4.79052 4.36371 3.70115 4.3833 3.66505 4.38424H3.66159C3.36387 4.00714 3.38487 2.76321 3.40184 2.50349C3.39827 2.48739 3.17974 2.61692 3.15112 2.63645C2.8884 2.82398 2.6428 3.03438 2.41718 3.26521C2.16043 3.52563 1.92585 3.80701 1.71587 4.10642C1.71587 4.1068 1.71565 4.10724 1.71552 4.10761C1.71552 4.10721 1.71574 4.1068 1.71587 4.10642C1.23294 4.79078 0.890436 5.56406 0.708149 6.38158C0.704555 6.39786 0.437836 7.56414 0.569399 8.16905Z" fill="url(#paint7_radial_28_109)"/>
<path d="M10.6595 5.20583C10.9335 5.47481 11.1682 5.78107 11.3566 6.11558C11.398 6.14665 11.4366 6.17762 11.4694 6.20783C13.172 7.77658 12.2799 9.99533 12.2134 10.1535C13.5965 9.01408 14.4813 7.32899 14.215 5.58958C13.3657 3.47296 11.9258 2.61946 10.7499 0.761083C10.6906 0.667115 10.631 0.572896 10.573 0.473584C10.5435 0.422864 10.5159 0.371035 10.4903 0.318209C10.4415 0.223891 10.4038 0.124197 10.3781 0.021146C10.3782 0.0162674 10.3766 0.0114978 10.3734 0.00777405C10.3703 0.00405032 10.3658 0.00164159 10.361 0.00102102C10.3564 -0.000299651 10.3515 -0.000299651 10.3469 0.00102102C10.3458 0.00139602 10.3443 0.00261477 10.3431 0.00305227C10.3415 0.00370852 10.3394 0.00520852 10.3376 0.00617727C10.0473 0.144552 8.32493 2.87162 10.6595 5.20583Z" fill="url(#paint8_radial_28_109)"/>
<path d="M11.4694 6.20785C11.4366 6.17763 11.398 6.14667 11.3566 6.1156C11.3413 6.1041 11.3263 6.09267 11.31 6.08123C10.909 5.79954 10.1909 5.52132 9.49912 5.64163C12.2004 6.99207 11.4752 11.6424 7.73209 11.4669C7.39876 11.4533 7.06935 11.3898 6.75487 11.2784C6.6805 11.2504 6.60694 11.2204 6.53428 11.1882C6.4919 11.1689 6.44956 11.1494 6.40771 11.1278C6.40921 11.1288 6.41128 11.1299 6.41281 11.1309C6.935 11.4871 9.51403 12.3577 12.2092 10.1632L12.2133 10.1534C12.2799 9.99548 13.1719 7.77663 11.4694 6.20785Z" fill="url(#paint9_radial_28_109)"/>
<path d="M4.63871 8.67009C4.63871 8.67009 4.98537 7.37837 7.12096 7.37837C7.35183 7.37837 8.01187 6.73415 8.02408 6.54734C8.0363 6.36052 6.65846 7.12084 5.2043 6.43668C3.63433 5.69799 2.44312 6.54734 2.44312 6.54734C2.44312 6.54734 2.89552 7.66637 4.2223 7.66637C4.08315 8.89405 4.73227 10.3257 6.30355 11.0765C6.33868 11.0933 6.37168 11.1116 6.40774 11.1277C5.49062 10.6537 4.7333 9.7579 4.63871 8.67009Z" fill="url(#paint10_radial_28_109)"/>
<path d="M14.9597 5.19852C14.6333 4.4134 13.9722 3.56577 13.4531 3.29786C13.8756 4.12615 14.1201 4.95702 14.2136 5.57712C14.2136 5.57833 14.214 5.58136 14.215 5.58961C13.3658 3.47296 11.9258 2.61946 10.75 0.761083C10.6906 0.667115 10.6311 0.572896 10.5731 0.473584C10.5436 0.422864 10.516 0.371035 10.4904 0.318209C10.4416 0.223891 10.4039 0.124197 10.3781 0.021146C10.3783 0.0162674 10.3767 0.0114978 10.3735 0.00777405C10.3703 0.00405032 10.3659 0.00164159 10.3611 0.00102102C10.3565 -0.000299651 10.3516 -0.000299651 10.347 0.00102102C10.3459 0.00139602 10.3443 0.00261477 10.3432 0.00305227C10.3416 0.00370852 10.3395 0.00520852 10.3377 0.00617727C10.3386 0.00505227 10.3403 0.00252102 10.3408 0.00192727C8.45428 1.1068 7.81428 3.15071 7.75547 4.1733C7.84297 4.16724 7.93022 4.1599 8.01928 4.1599C9.42719 4.1599 10.6534 4.93396 11.3099 6.08127C10.9089 5.79958 10.1908 5.52136 9.49906 5.64168C12.2003 6.99211 11.4752 11.6425 7.73203 11.4669C7.3987 11.4533 7.0693 11.3898 6.75481 11.2785C6.68044 11.2505 6.60688 11.2204 6.53422 11.1883C6.49184 11.169 6.4495 11.1494 6.40766 11.1278C6.40916 11.1288 6.41122 11.13 6.41275 11.1309C6.37605 11.1133 6.33959 11.0951 6.30337 11.0765C6.3385 11.0932 6.3715 11.1116 6.40756 11.1277C5.49038 10.6537 4.73306 9.7579 4.63847 8.67008C4.63847 8.67008 4.98513 7.37837 7.12072 7.37837C7.35159 7.37837 8.01163 6.73415 8.02384 6.54733C8.02106 6.48633 6.71394 5.9664 6.20437 5.46433C5.93209 5.19608 5.80281 5.06674 5.68831 4.96971C5.6262 4.91724 5.56125 4.86821 5.49378 4.82283C5.3226 4.22396 5.31533 3.59011 5.47272 2.98746C4.70122 3.33874 4.10116 3.89402 3.66491 4.38433H3.66144C3.36372 4.00724 3.38472 2.7633 3.40169 2.50358C3.39812 2.48749 3.17959 2.61702 3.15097 2.63655C2.88825 2.82408 2.64265 3.03448 2.41703 3.2653C2.16036 3.5257 1.92585 3.80705 1.71594 4.10643C1.71594 4.1068 1.71572 4.10724 1.71559 4.10761C1.71559 4.10721 1.71581 4.1068 1.71594 4.10643C1.23301 4.79078 0.890506 5.56407 0.708219 6.38158C0.704625 6.39786 0.701594 6.41474 0.698094 6.43115C0.683969 6.49727 0.620406 6.8328 0.611531 6.90477C0.612188 6.89927 0.610844 6.9103 0.611531 6.90477C0.553567 7.2515 0.516583 7.6014 0.500781 7.95258C0.500781 7.9654 0.5 7.97808 0.5 7.99093C0.5 12.1381 3.8625 15.5 8.01013 15.5C11.7247 15.5 14.8089 12.8035 15.4127 9.26155C15.4254 9.16543 15.4356 9.0688 15.4468 8.97183C15.5961 7.68402 15.4302 6.33043 14.9597 5.19852ZM14.2147 5.58418C14.2151 5.58683 14.2155 5.58962 14.2159 5.59227L14.2157 5.59146L14.2147 5.58418Z" fill="url(#paint11_linear_28_109)"/>
</g>
<defs>
<linearGradient id="paint0_linear_28_109" x1="1309.26" y1="240.249" x2="103.363" y2="1403.51" gradientUnits="userSpaceOnUse">
<stop offset="0.05" stop-color="#FFF44F"/>
<stop offset="0.37" stop-color="#FF980E"/>
<stop offset="0.53" stop-color="#FF3647"/>
<stop offset="0.7" stop-color="#E31587"/>
</linearGradient>
<radialGradient id="paint1_radial_28_109" cx="0" cy="0" r="1" gradientUnits="userSpaceOnUse" gradientTransform="translate(1049.21 -154.106) scale(1536.01 1561.87)">
<stop offset="0.13" stop-color="#FFBD4F"/>
<stop offset="0.28" stop-color="#FF980E"/>
<stop offset="0.47" stop-color="#FF3750"/>
<stop offset="0.78" stop-color="#EB0878"/>
<stop offset="0.86" stop-color="#E50080"/>
</radialGradient>
<radialGradient id="paint2_radial_28_109" cx="0" cy="0" r="1" gradientUnits="userSpaceOnUse" gradientTransform="translate(603.115 491.383) scale(1574.41 1561.87)">
<stop offset="0.3" stop-color="#960E18"/>
<stop offset="0.35" stop-color="#B11927" stop-opacity="0.74"/>
<stop offset="0.43" stop-color="#DB293D" stop-opacity="0.34"/>
<stop offset="0.5" stop-color="#F5334B" stop-opacity="0.09"/>
<stop offset="0.53" stop-color="#FF3750" stop-opacity="0"/>
</radialGradient>
<radialGradient id="paint3_radial_28_109" cx="0" cy="0" r="1" gradientUnits="userSpaceOnUse" gradientTransform="translate(180.61 -73.364) scale(504.158 855.934)">
<stop offset="0.13" stop-color="#FFF44F"/>
<stop offset="0.53" stop-color="#FF980E"/>
</radialGradient>
<radialGradient id="paint4_radial_28_109" cx="0" cy="0" r="1" gradientUnits="userSpaceOnUse" gradientTransform="translate(156.478 809.27) scale(667.134 731.187)">
<stop offset="0.35" stop-color="#3A8EE6"/>
<stop offset="0.67" stop-color="#9059FF"/>
<stop offset="1" stop-color="#C139E6"/>
</radialGradient>
<radialGradient id="paint5_radial_28_109" cx="0" cy="0" r="1" gradientUnits="userSpaceOnUse" gradientTransform="translate(316.394 245.452) scale(354.248 431.4)">
<stop offset="0.21" stop-color="#9059FF" stop-opacity="0"/>
<stop offset="0.97" stop-color="#6E008B" stop-opacity="0.6"/>
</radialGradient>
<radialGradient id="paint6_radial_28_109" cx="0" cy="0" r="1" gradientUnits="userSpaceOnUse" gradientTransform="translate(387.729 -180.55) scale(530.374 532.259)">
<stop offset="0.1" stop-color="#FFE226"/>
<stop offset="0.79" stop-color="#FF7139"/>
</radialGradient>
<radialGradient id="paint7_radial_28_109" cx="0" cy="0" r="1" gradientUnits="userSpaceOnUse" gradientTransform="translate(1182.19 -481.657) scale(2532.12 2125.58)">
<stop offset="0.11" stop-color="#FFF44F"/>
<stop offset="0.46" stop-color="#FF980E"/>
<stop offset="0.72" stop-color="#FF3647"/>
<stop offset="0.9" stop-color="#E31587"/>
</radialGradient>
<radialGradient id="paint8_radial_28_109" cx="0" cy="0" r="1" gradientTransform="matrix(175.321 783.99 -3522.11 173.989 196.898 31.3205)" gradientUnits="userSpaceOnUse">
<stop stop-color="#FFF44F"/>
<stop offset="0.3" stop-color="#FF980E"/>
<stop offset="0.57" stop-color="#FF3647"/>
<stop offset="0.74" stop-color="#E31587"/>
</radialGradient>
<radialGradient id="paint9_radial_28_109" cx="0" cy="0" r="1" gradientUnits="userSpaceOnUse" gradientTransform="translate(121.663 -249.007) scale(1453.81 1428.27)">
<stop offset="0.14" stop-color="#FFF44F"/>
<stop offset="0.48" stop-color="#FF980E"/>
<stop offset="0.66" stop-color="#FF3647"/>
<stop offset="0.9" stop-color="#E31587"/>
</radialGradient>
<radialGradient id="paint10_radial_28_109" cx="0" cy="0" r="1" gradientUnits="userSpaceOnUse" gradientTransform="translate(891.504 -217.148) scale(1747.43 1563.28)">
<stop offset="0.09" stop-color="#FFF44F"/>
<stop offset="0.63" stop-color="#FF980E"/>
</radialGradient>
<linearGradient id="paint11_linear_28_109" x1="1200.5" y1="216.999" x2="236.201" y2="1270.61" gradientUnits="userSpaceOnUse">
<stop offset="0.17" stop-color="#FFF44F" stop-opacity="0.8"/>
<stop offset="0.6" stop-color="#FFF44F" stop-opacity="0"/>
</linearGradient>
<clipPath id="clip0_28_109">
<rect width="16" height="16" fill="white"/>
</clipPath>
</defs>
</svg>
